<svg xmlns="http://www.w3.org/2000/svg" width="16.341" height="16.322" viewBox="0 0 16.341 16.322"><defs><style>.a{fill:#3737c8;}</style></defs><g transform="translate(-676.622 406.808)"><path class="a" d="M691.36-391.21a.659.659,0,0,0-.865-.63.665.665,0,0,0-.461.661c0,.5,0,1.006,0,1.509q0,1.434,0,2.868a.9.9,0,0,1-.172.522,1.029,1.029,0,0,1-.9.445q-3.434,0-6.867,0-1.54,0-3.08,0a1,1,0,0,1-.966-.6,1.123,1.123,0,0,1-.089-.5q0-3.736,0-7.472c0-.814,0-1.629,0-2.444a1.027,1.027,0,0,1,.358-.821,1.056,1.056,0,0,1,.727-.243c1.129,0,2.258,0,3.386,0,.291,0,.582,0,.872,0a.667.667,0,0,0,.66-.462.661.661,0,0,0-.646-.866q-2.173,0-4.345,0a2.256,2.256,0,0,0-.429.039,2.3,2.3,0,0,0-1.668,1.259,2.566,2.566,0,0,0-.246,1.218c0,1.679,0,3.358,0,5.037q0,2.389,0,4.777a2.326,2.326,0,0,0,.461,1.455,2.3,2.3,0,0,0,1.924.951H684q2.487,0,4.974,0a2.775,2.775,0,0,0,.5-.044,2.326,2.326,0,0,0,1.891-2.256c0-.49,0-.979,0-1.469C691.362-389.256,691.364-390.233,691.36-391.21Z" transform="translate(0 -5.978)"/><path class="a" d="M702.955-391.429q-.13.654-.262,1.308c-.13.646-.262,1.292-.386,1.939a.964.964,0,0,0-.012.38.669.669,0,0,0,.835.5c.374-.063.744-.147,1.116-.221.675-.135,1.349-.271,2.025-.4a1,1,0,0,0,.552-.27q2.044-2.06,4.1-4.113a.628.628,0,0,0,.042-.049l-3.619-3.621c-.014.012-.034.028-.052.046l-4.133,4.132A.711.711,0,0,0,702.955-391.429Z" transform="translate(-20.285 -8.561)"/><path class="a" d="M735.572-405.078q-.61-.629-1.238-1.239a1.688,1.688,0,0,0-1.926-.323,1.647,1.647,0,0,0-.422.281c-.29.272-.563.562-.839.84l3.618,3.619c.005,0,.016-.013.025-.022.259-.259.522-.515.778-.778A1.666,1.666,0,0,0,735.572-405.078Z" transform="translate(-43.107 0)"/></g></svg>