<svg xmlns="http://www.w3.org/2000/svg" width="11.019" height="11" viewBox="0 0 11.019 11"><defs><style>.a{fill:#3737c8;}</style></defs><g transform="translate(1130.575 -901.274)"><path class="a" d="M-1122.956,917.554c0-.817,0-1.633,0-2.45,0-.305-.01-.611-.021-.916a1.218,1.218,0,0,0-.123-.512,1.752,1.752,0,0,0-.736-.794,1.511,1.511,0,0,0-.609-.192c-.149-.011-.3-.013-.449-.013q-.8,0-1.6,0c-.243,0-.487.008-.73.015a.7.7,0,0,0-.385.095,3.417,3.417,0,0,0-.405.293c-.344.318-.679.644-1.013.972-.269.265-.531.536-.8.805a4.836,4.836,0,0,0-.608.728.532.532,0,0,0-.1.235c-.016.162-.031.324-.036.486-.007.276-.008.553-.008.83q0,1.525,0,3.051c0,.206.011.412.013.618a1.5,1.5,0,0,0,.172.684,1.714,1.714,0,0,0,.591.656,1.654,1.654,0,0,0,.411.2,1.335,1.335,0,0,0,.406.066q2.149,0,4.3,0a2.137,2.137,0,0,0,.22,0,1.5,1.5,0,0,0,.327-.051,1.992,1.992,0,0,0,.368-.177,1.635,1.635,0,0,0,.663-.742,1,1,0,0,0,.116-.368c.011-.247.026-.495.03-.742.006-.349,0-.7.005-1.046q0-.86,0-1.72Zm-.923,3.517a.9.9,0,0,1-.361.389.748.748,0,0,1-.353.1q-1.041.009-2.082.014-.674,0-1.348,0c-.311,0-.622-.008-.933-.018a.786.786,0,0,1-.7-.5.668.668,0,0,1-.048-.257q-.016-.373-.018-.747-.006-1.361-.007-2.722,0-.5,0-.994c0-.106.007-.213.015-.319a.34.34,0,0,1,.3-.321c.19-.021.381-.033.572-.039.294-.01.587-.01.881-.017a.352.352,0,0,0,.213-.114.339.339,0,0,0,.125-.252c.006-.2.013-.394.018-.591.006-.232.011-.464.018-.7a.586.586,0,0,1,.059-.267.3.3,0,0,1,.263-.183c.189-.006.377-.013.566-.013q.92,0,1.84.009c.1,0,.19,0,.285.01a.814.814,0,0,1,.652.412,1.546,1.546,0,0,1,.1.192.236.236,0,0,1,.014.092q0,1.657,0,3.314,0,1.612,0,3.224A.615.615,0,0,1-1123.878,921.071Z" transform="translate(0 -10.132)"/><path class="a" d="M-1075.427,905.439h-.007c0-.8,0-1.6,0-2.407a1.8,1.8,0,0,0-.049-.492,1.766,1.766,0,0,0-.259-.551,1.682,1.682,0,0,0-.712-.577,1.352,1.352,0,0,0-.481-.125c-.142-.006-.285-.013-.427-.013q-1.218,0-2.437,0a.207.207,0,0,0-.083.018c-.067.03-.133.062-.2.1a3.619,3.619,0,0,0-.818.671.11.11,0,0,0-.014.033.118.118,0,0,0,.034.013c.091,0,.182,0,.272.01a2.886,2.886,0,0,1,.527.059.259.259,0,0,0,.182-.006.529.529,0,0,1,.242-.054c.514,0,1.028,0,1.542,0,.35,0,.7.01,1.05.019a.841.841,0,0,1,.217.033.718.718,0,0,1,.3.187.714.714,0,0,1,.223.357,1.644,1.644,0,0,1,.028.287c.007.436.015.873.015,1.309q0,1.737,0,3.474,0,.568-.014,1.136a.715.715,0,0,1-.057.329,1.011,1.011,0,0,1-.138.2.762.762,0,0,1-.532.281c-.095.005-.19.01-.285.011l-1.024.01c-.059,0-.064.005-.065.064v.713c0,.063,0,.065.066.065.418,0,.835-.006,1.253-.012a1.566,1.566,0,0,0,.326-.026,1.707,1.707,0,0,0,.813-.451,1.667,1.667,0,0,0,.4-.612,1.7,1.7,0,0,0,.078-.263,1.059,1.059,0,0,0,.01-.2c.007-.526.014-1.051.019-1.577,0-.439,0-.879,0-1.318C-1075.426,905.9-1075.427,905.671-1075.427,905.439Z" transform="translate(-44.13)"/><path class="a" d="M-1112.378,949.991a.271.271,0,0,0,.109-.244.242.242,0,0,0-.251-.226.343.343,0,0,0-.177.06.876.876,0,0,1-.141.084.429.429,0,0,1-.144.037.5.5,0,0,1-.391-.15c-.258-.254-.518-.5-.774-.76-.095-.094-.182-.2-.272-.3a.445.445,0,0,1-.1-.46.428.428,0,0,1,.346-.28.5.5,0,0,1,.4.135l.222.205a.1.1,0,0,0,.114.015,1.743,1.743,0,0,1,.233-.073.622.622,0,0,1,.295,0l.01-.011a.358.358,0,0,0-.037-.054c-.147-.148-.293-.3-.444-.441a1.077,1.077,0,0,0-.551-.3.93.93,0,0,0-.6.081.967.967,0,0,0-.286,1.533c.337.376.708.721,1.066,1.078a.924.924,0,0,0,.315.215A.978.978,0,0,0-1112.378,949.991Z" transform="translate(-13.765 -40.825)"/><path class="a" d="M-1100.274,959.032q-.3-.3-.6-.58a.9.9,0,0,0-.44-.234,1.084,1.084,0,0,0-.513.012.843.843,0,0,0-.423.262.231.231,0,0,0-.04.25.226.226,0,0,0,.211.158.341.341,0,0,0,.243-.078.475.475,0,0,1,.629.044c.277.281.562.554.84.834a1.757,1.757,0,0,1,.214.259.391.391,0,0,1,.018.4.436.436,0,0,1-.647.168,2.118,2.118,0,0,1-.23-.2c-.057-.052-.056-.056-.126-.022a.692.692,0,0,1-.326.069c-.039,0-.078,0-.117,0s-.07.005-.119.009a.439.439,0,0,0,.033.045c.146.143.288.291.441.426a.99.99,0,0,0,1.008.224.909.909,0,0,0,.633-.7.937.937,0,0,0-.228-.863C-1099.963,959.348-1100.117,959.188-1100.274,959.032Z" transform="translate(-25.114 -50.578)"/></g></svg>