<svg xmlns="http://www.w3.org/2000/svg" width="240" height="240" viewBox="0 0 240 240"><defs><style>.a{fill:#55d8fe;}.b{fill:#a3a0fb;}</style></defs><g transform="translate(-731 -821)"><circle class="a" cx="120" cy="120" r="120" transform="translate(731 821)"/><path class="b" d="M-18662.115-1119.394h-119.994l0-.6a120.669,120.669,0,0,1,2.439-24.185,119.071,119.071,0,0,1,6.992-22.526,119.835,119.835,0,0,1,11.063-20.384,120.917,120.917,0,0,1,14.652-17.76,120.815,120.815,0,0,1,17.76-14.653,119.9,119.9,0,0,1,20.383-11.064,119.412,119.412,0,0,1,22.523-6.992,120.9,120.9,0,0,1,24.184-2.438v120.6h0v0Z" transform="translate(19513.113 2061)"/></g></svg>