<svg xmlns="http://www.w3.org/2000/svg" width="12.228" height="9.81" viewBox="0 0 12.228 9.81"><defs><style>.a{fill:#3737c8;}</style></defs><g transform="translate(742.985 -414.17)"><path class="a" d="M-733.027,435.5c-.306-.249-.658-.166-.98.232a3.682,3.682,0,0,1-6.234-.815c-.032-.071-.053-.146-.08-.219a11.834,11.834,0,0,1,1.084.594.619.619,0,0,0,.889-.163.61.61,0,0,0-.251-.883q-1.108-.677-2.225-1.34a.609.609,0,0,0-.935.285q-.575,1.164-1.138,2.334a.621.621,0,0,0,.248.887.624.624,0,0,0,.853-.345c.117-.231.229-.465.371-.754.06.117.1.182.128.248a4.917,4.917,0,0,0,8.242.949C-732.729,436.1-732.719,435.755-733.027,435.5Z" transform="translate(0 -14.355)"/><path class="a" d="M-724.428,416.043a.622.622,0,0,0-.677.362c-.128.247-.248.5-.389.785-.059-.109-.094-.167-.123-.228a4.907,4.907,0,0,0-6.841-2.158,4.714,4.714,0,0,0-1.535,1.363.6.6,0,0,0,.1.843.614.614,0,0,0,.864-.1c.036-.04.068-.083.1-.125a3.671,3.671,0,0,1,5.266-.511A3.547,3.547,0,0,1-726.6,417.8l-.045.041c-.367-.219-.731-.445-1.1-.655a.6.6,0,0,0-.839.221.592.592,0,0,0,.212.822q1.164.717,2.343,1.411a.568.568,0,0,0,.815-.224q.638-1.26,1.238-2.54A.6.6,0,0,0-724.428,416.043Z" transform="translate(-6.831 0)"/></g></svg>