<svg xmlns="http://www.w3.org/2000/svg" width="18.316" height="18.322" viewBox="0 0 18.316 18.322"><defs><style>.a{fill:#3737c8;}</style></defs><g transform="translate(1229.8 371.789)"><path class="a" d="M-1211.5-367.7a.7.7,0,0,0-.706-.558h-4.213c0-.223,0-.431,0-.64a5.913,5.913,0,0,0-.151-1.414,1.7,1.7,0,0,0-.917-1.152,3.062,3.062,0,0,0-1.158-.27c-1.228-.077-2.458-.059-3.687-.018a5.648,5.648,0,0,0-.854.106,1.9,1.9,0,0,0-1.061.549,2.2,2.2,0,0,0-.53,1.233,10.754,10.754,0,0,0-.086,1.5c0,.034,0,.067,0,.1h-.113q-2.034,0-4.067,0a.9.9,0,0,0-.26.034.7.7,0,0,0-.486.765.7.7,0,0,0,.7.608c.435,0,.869,0,1.3,0h.1v.1q0,3.332,0,6.665,0,1.743.023,3.486a5.914,5.914,0,0,0,.153,1.318,2.142,2.142,0,0,0,.65,1.154,2.32,2.32,0,0,0,1.08.5,8.232,8.232,0,0,0,1.654.145c.995.01,1.99.011,2.985.008,1.473,0,2.946-.007,4.419-.024a5.01,5.01,0,0,0,1.6-.238,1.926,1.926,0,0,0,1.106-.914,3.081,3.081,0,0,0,.342-1.283c.039-.568.067-1.137.068-1.706q.01-4.552,0-9.1v-.115h.11c.437,0,.875,0,1.312,0A.7.7,0,0,0-1211.5-367.7Zm-11.871-2.037c.006-.038.016-.074.022-.112a.472.472,0,0,1,.415-.415,5.592,5.592,0,0,1,1.129-.1q1.391,0,2.782.017a6.219,6.219,0,0,1,.724.083.41.41,0,0,1,.386.4c.033.329.063.659.082.99.012.2,0,.4,0,.612h-5.62a.159.159,0,0,1-.008-.036A9.027,9.027,0,0,1-1223.372-369.74Zm8.356,12.643c0,.453-.061.906-.1,1.359a1.441,1.441,0,0,1-.073.289.579.579,0,0,1-.413.4,3.84,3.84,0,0,1-1.1.15q-2.091.022-4.182.025-1.571,0-3.143-.007a8.1,8.1,0,0,1-1.385-.1l-.069-.014c-.462-.107-.581-.215-.682-.738a7.9,7.9,0,0,1-.1-1.482q-.007-4.538-.006-9.077v-.553h11.264c0,.026.006.051.006.076Q-1215.008-361.935-1215.016-357.1Z"/><path class="a" d="M-1201.635-337.616a.7.7,0,0,0-.705-.705.7.7,0,0,0-.7.718q0,1.985,0,3.97c0,.784,0,1.567,0,2.351a.7.7,0,0,0,.7.71.7.7,0,0,0,.706-.713q0-1.58,0-3.161,0-.29,0-.581C-1201.635-335.89-1201.633-336.753-1201.635-337.616Z" transform="translate(-21.12 -26.417)"/><path class="a" d="M-1188.261-337.62a.7.7,0,0,0-.71-.7.7.7,0,0,0-.7.714q0,1.58,0,3.16v.581c0,.863,0,1.726,0,2.588a.7.7,0,0,0,.706.7.7.7,0,0,0,.7-.727q0-2.205,0-4.411C-1188.26-336.346-1188.258-336.983-1188.261-337.62Z" transform="translate(-31.676 -26.418)"/><path class="a" d="M-1174.888-337.613a.7.7,0,0,0-.855-.686.7.7,0,0,0-.552.7q0,2.034,0,4.067c0,.751,0,1.5,0,2.254a.7.7,0,0,0,.712.708.7.7,0,0,0,.7-.715q0-1.58,0-3.161v-.933C-1174.887-336.123-1174.885-336.868-1174.888-337.613Z" transform="translate(-42.232 -26.422)"/></g></svg>